<svg width="25" height="31" viewBox="0 0 25 31" fill="none" xmlns="http://www.w3.org/2000/svg">
<path d="M9.87646 7.15332H0L24.0847 30.8908L9.87646 7.15332Z" fill="#1F7FF0" fill-opacity="0.7"/>
<path d="M13.3299 0H0.0866356L0.295887 0.834476C0.387158 1.19846 0.516687 1.55176 0.68231 1.88848C0.862169 2.25414 1.08345 2.59792 1.3418 2.91306L1.40246 2.98706C1.6796 3.32512 1.99198 3.63266 2.33433 3.90447L2.466 4.00901C2.78524 4.26248 3.12405 4.49027 3.47925 4.69025L3.88482 4.91859C4.12468 5.05363 4.37457 5.17003 4.63228 5.26675C5.23562 5.4932 5.87479 5.6092 6.51923 5.6092H13.6712C14.084 5.6092 14.4938 5.6792 14.8832 5.81622C15.4081 6.00093 15.8839 6.3032 16.2742 6.69992L16.3349 6.76167C16.5905 7.02144 16.8033 7.31998 16.9656 7.64624C17.2034 8.12434 17.3271 8.65105 17.3271 9.18502V9.38044C17.3271 9.89228 17.1931 10.3952 16.9383 10.8391C16.794 11.0906 16.6132 11.3192 16.4018 11.5176L16.3074 11.6062C15.9509 11.9407 15.5333 12.2032 15.0773 12.3794L15.0151 12.4034C14.539 12.5873 14.0331 12.6817 13.5228 12.6817H4.34218C3.93499 12.6817 3.53183 12.7624 3.156 12.9191C3.01593 12.9775 2.88037 13.0462 2.75042 13.1246L2.32292 13.3825C1.93149 13.6186 1.57614 13.9099 1.26784 14.2474C0.887696 14.6635 0.58454 15.1439 0.372516 15.6662L0.361443 15.6935C0.122735 16.2814 0 16.91 0 17.5446V24.5521C0 25.3572 0.146793 26.1555 0.433178 26.9079L0.618005 27.3126C0.840023 27.7987 1.13509 28.248 1.49297 28.6448C1.76736 28.9491 2.0765 29.2202 2.41404 29.4524L2.78157 29.7053C3.06373 29.8995 3.36134 30.0702 3.6714 30.2156C4.28093 30.5016 4.9326 30.6874 5.6013 30.7658L5.97786 30.81V17.8844H14.7801C16.1138 17.8844 17.4297 17.5785 18.6267 16.9902L19.1613 16.6766C19.7266 16.3451 20.2462 15.9414 20.7071 15.4756C20.9946 15.1851 21.258 14.8718 21.4947 14.5386L22.0354 13.7776C22.3605 13.32 22.6241 12.8215 22.8192 12.2951C23.0832 11.583 23.2183 10.8296 23.2183 10.0702V8.7586C23.2183 7.59236 22.9826 6.43816 22.5253 5.36533L22.1317 4.71194C21.6459 3.90553 21.0428 3.17593 20.3422 2.54712C19.721 1.98958 19.029 1.51647 18.284 1.14005L18.2551 1.12549C17.5239 0.756009 16.7489 0.480381 15.9485 0.305148L15.7513 0.261966C14.9559 0.0878302 14.1441 0 13.3299 0Z" fill="url(#paint0_linear_1547_1157)"/>
<defs>
<linearGradient id="paint0_linear_1547_1157" x1="0" y1="0" x2="16.8593" y2="30.3153" gradientUnits="userSpaceOnUse">
<stop offset="0.479167" stop-color="#E9ECEF"/>
<stop offset="1" stop-color="#E9ECEF" stop-opacity="0"/>
</linearGradient>
</defs>
</svg>
