<svg width="32" height="32" viewBox="0 0 32 32" fill="none" xmlns="http://www.w3.org/2000/svg">
<path d="M21.6 10.3991V17.3991C21.6 18.513 22.0425 19.5813 22.8302 20.369C23.6178 21.1566 24.6861 21.5991 25.8 21.5991C26.9139 21.5991 27.9822 21.1566 28.7699 20.369C29.5575 19.5813 30 18.513 30 17.3991V15.9991C29.9998 12.8394 28.9307 9.7726 26.9666 7.29747C25.0024 4.82235 22.2588 3.08445 19.1817 2.36635C16.1046 1.64825 12.8751 1.99219 10.0183 3.34224C7.16148 4.6923 4.84537 6.96907 3.44657 9.80234C2.04778 12.6356 1.64857 15.8588 2.31385 18.9477C2.97913 22.0366 4.66978 24.8096 7.11089 26.8159C9.55201 28.8221 12.6 29.9436 15.7593 29.9979C18.9186 30.0523 22.0034 29.0363 24.512 27.1151M21.6 15.9993C21.6 19.0921 19.0928 21.5993 16 21.5993C12.9072 21.5993 10.4 19.0921 10.4 15.9993C10.4 12.9065 12.9072 10.3993 16 10.3993C19.0928 10.3993 21.6 12.9065 21.6 15.9993Z" stroke="url(#paint0_linear_1690_229)" stroke-linecap="round" stroke-linejoin="round" stroke-width="1.5"/>
<defs>
<linearGradient id="paint0_linear_1690_229" x1="2.00011" y1="15.9998" x2="24.1683" y2="27.37" gradientUnits="userSpaceOnUse">
<stop stop-color="#5390E3"/>
<stop offset="1" stop-color="#1357B3"/>
</linearGradient>
</defs>
</svg>
