<svg width="24" height="25" viewBox="0 0 24 25" fill="none" xmlns="http://www.w3.org/2000/svg">
<path d="M4.75 12.5474C4.75 11.3284 5.05 10.1794 5.582 9.17137L4.802 6.60137C4.54 5.73937 5.462 4.99737 6.248 5.43937L8.063 6.45937C9.23517 5.69907 10.6028 5.2954 12 5.29737C13.453 5.29737 14.805 5.72437 15.94 6.46037L17.762 5.43837C18.549 4.99837 19.472 5.74137 19.207 6.60337L18.42 9.17537C18.9309 10.149 19.2136 11.2261 19.2467 12.3252C19.2799 13.4242 19.0626 14.5164 18.6113 15.5191C18.1601 16.5218 17.4867 17.4087 16.6421 18.1127C15.7975 18.8167 14.8039 19.3194 13.7363 19.5828C12.6688 19.8461 11.5553 19.8632 10.4802 19.6327C9.4051 19.4022 8.3965 18.9302 7.53073 18.2524C6.66496 17.5746 5.9647 16.7087 5.48294 15.7203C5.00118 14.7319 4.75055 13.6469 4.75 12.5474Z" stroke="#FFF" stroke-width="1.5" stroke-linecap="round" stroke-linejoin="round"/>
</svg>
