<svg width="32" height="32" viewBox="0 0 32 32" fill="none" xmlns="http://www.w3.org/2000/svg">
<path d="M15.44 30V24.4C15.44 23.2118 15.912 22.0723 16.7522 21.2322C17.5923 20.392 18.7318 19.92 19.92 19.92C21.1082 19.92 22.2477 20.392 23.0878 21.2322C23.928 22.0723 24.4 23.2118 24.4 24.4V30M15.44 26.64H10.96C9.77183 26.64 8.63232 26.168 7.79216 25.3278C6.952 24.4877 6.48 23.3482 6.48 22.16C6.48 20.9718 6.008 19.8323 5.16784 18.9922C4.32768 18.152 3.18817 17.68 2 17.68M17.6562 5.36C16.9978 4.32971 16.0906 3.48184 15.0182 2.89461C13.9457 2.30738 12.7427 1.99971 11.52 2C10.9761 2.94031 10.6499 3.99057 10.5654 5.07354C10.4808 6.15651 10.6401 7.24467 11.0314 8.258C10.2652 9.38624 9.85065 10.7162 9.84 12.08V13.2C9.84 14.9823 10.548 16.6915 11.8082 17.9518C13.0685 19.212 14.7777 19.92 16.56 19.92H23.28C25.0623 19.92 26.7715 19.212 28.0318 17.9518C29.292 16.6915 30 14.9823 30 13.2V12.08C29.9894 10.7162 29.5748 9.38624 28.8086 8.258C29.1999 7.24467 29.3592 6.15651 29.2746 5.07354C29.1901 3.99057 28.8639 2.94031 28.32 2C27.0973 1.99971 25.8943 2.30738 24.8218 2.89461C23.7494 3.48184 22.8422 4.32971 22.1838 5.36H17.6562Z" stroke="url(#paint0_linear_1689_219)" stroke-linecap="round" stroke-linejoin="round" stroke-width="1.5"/>
<defs>
<linearGradient id="paint0_linear_1689_219" x1="2.00011" y1="15.9998" x2="24.1683" y2="27.37" gradientUnits="userSpaceOnUse">
<stop stop-color="#5390E3"/>
<stop offset="1" stop-color="#1357B3"/>
</linearGradient>
</defs>
</svg>
