<svg width="32" height="32" viewBox="0 0 32 32" fill="none" xmlns="http://www.w3.org/2000/svg">
<path d="M10.6502 25.9395H11.1502V25.4395V12.7958V12.2958H10.6502H6.4485H5.9485V12.7958V25.4395V25.9395H6.4485H10.6502ZM11.4268 8.8845H11.4269L11.4266 8.87392C11.411 8.13537 11.1379 7.45947 10.6298 6.96788C10.1207 6.47538 9.40992 6.2005 8.57825 6.2005C7.74777 6.2005 7.02541 6.4749 6.50665 6.96411C5.98696 7.4542 5.7 8.13399 5.7 8.8845C5.7 10.3869 6.84756 11.5685 8.52225 11.5685H8.55025C9.39556 11.5685 10.1188 11.2868 10.6339 10.7928C11.1487 10.2991 11.4268 9.62025 11.4268 8.8845ZM17.1392 25.9395H17.6392V25.4395V18.3783C17.6392 18.003 17.6706 17.714 17.741 17.5446L17.741 17.5446L17.7433 17.539C17.9983 16.9036 18.5442 16.3162 19.4353 16.3162C20.0483 16.3162 20.4172 16.5384 20.6562 16.8895C20.917 17.2726 21.0632 17.8705 21.0632 18.6758V25.4395V25.9395H21.5632H25.765H26.265V25.4395V18.1875C26.265 16.1591 25.7233 14.6012 24.7511 13.5463C23.7751 12.4873 22.4219 11.9965 20.928 11.9965C19.714 11.9965 18.8071 12.3324 18.1231 12.8057C17.9456 12.9284 17.785 13.0592 17.6392 13.1935V12.7958V12.2958H17.1392H12.9392H12.4166L12.4397 12.8179C12.4653 13.3959 12.4655 16.5387 12.4589 19.5615C12.4557 21.0674 12.4507 22.5364 12.4466 23.6289C12.4446 24.1751 12.4427 24.6272 12.4414 24.9428L12.4398 25.3083L12.4394 25.4043L12.4393 25.4289L12.4393 25.4351L12.4393 25.4367L12.4393 25.4371C12.4393 25.4372 12.4393 25.4372 12.9392 25.4395L12.4393 25.4372L12.437 25.9395H12.9392H17.1392ZM2.5 4.0055C2.5 3.1856 3.18478 2.5 4.05625 2.5H27.9438C28.8152 2.5 29.5 3.1856 29.5 4.0055V27.9945C29.5 28.8144 28.8152 29.5 27.9438 29.5H4.05625C3.18478 29.5 2.5 28.8144 2.5 27.9945V4.0055Z" stroke="url(#paint0_linear_1687_199)" stroke-width="1.5"/>
<defs>
<linearGradient id="paint0_linear_1687_199" x1="2.00011" y1="15.9998" x2="24.1683" y2="27.37" gradientUnits="userSpaceOnUse">
<stop stop-color="#5390E3"/>
<stop offset="1" stop-color="#1357B3"/>
</linearGradient>
</defs>
</svg>
