<svg width="25" height="31" viewBox="0 0 191 242" fill="none" xmlns="http://www.w3.org/2000/svg">
<path d="M79.7321 56.5789H3L190.119 241L79.7321 56.5789Z" fill="#1F7FF0" fill-opacity="0.7" stroke="#1F7FF0" stroke-width="2"/>
<path d="M106.563 1H3.67309L5.29881 7.4832C6.00791 10.311 7.01424 13.0559 8.301 15.6719C9.69836 18.5128 11.4175 21.1837 13.4247 23.6321L13.896 24.2071C16.0491 26.8335 18.4761 29.2228 21.1359 31.3346L22.1588 32.1468C24.6391 34.116 27.2713 35.8858 30.031 37.4395L33.1819 39.2134C35.0454 40.2626 36.9869 41.1669 38.9891 41.9184C43.6765 43.6778 48.6424 44.579 53.6491 44.579H109.214C112.421 44.579 115.605 45.1228 118.63 46.1873C122.709 47.6224 126.405 49.9708 129.437 53.053L129.909 53.5328C131.895 55.5509 133.548 57.8703 134.809 60.4051C136.656 64.1196 137.618 68.2117 137.618 72.3602V73.8785C137.618 77.8551 136.576 81.7623 134.597 85.2113C133.476 87.1649 132.071 88.9414 130.429 90.4827L129.695 91.1708C126.926 93.7694 123.681 95.809 120.139 97.1777L119.655 97.3645C115.957 98.7935 112.026 99.5264 108.061 99.5264H36.7352C33.5717 99.5264 30.4395 100.153 27.5196 101.371C26.4314 101.825 25.3781 102.359 24.3685 102.968L21.0472 104.971C18.0061 106.805 15.2454 109.069 12.8501 111.691C9.89668 114.924 7.54141 118.656 5.89415 122.714L5.80812 122.926C3.95355 127.494 3 132.377 3 137.307V191.75C3 198.005 4.14046 204.207 6.36544 210.053L7.8014 213.197C9.5263 216.973 11.8187 220.464 14.5992 223.547C16.731 225.911 19.1327 228.017 21.7552 229.822L24.6106 231.786C26.8027 233.295 29.1149 234.621 31.5238 235.751C36.2594 237.973 41.3223 239.416 46.5176 240.026L49.4431 240.369V139.948H117.829C128.191 139.948 138.415 137.571 147.714 133L151.868 130.564C156.26 127.989 160.297 124.852 163.878 121.233C166.111 118.976 168.158 116.542 169.997 113.953L174.197 108.041C176.723 104.485 178.771 100.613 180.287 96.5228C182.338 90.9904 183.388 85.1373 183.388 79.237V69.0473C183.388 59.9865 181.556 51.0193 178.003 42.6843L174.945 37.608C171.171 31.3428 166.486 25.6744 161.043 20.7891C156.217 16.4574 150.84 12.7817 145.052 9.85727L144.828 9.74413C139.146 6.87358 133.125 4.73217 126.907 3.37075L125.375 3.03527C119.196 1.68237 112.888 1 106.563 1Z" fill="url(#paint0_linear_1692_197)"/>
<path d="M3.67309 1V0H2.39137L2.70312 1.24323L3.67309 1ZM125.375 3.03527L125.161 4.01213L125.161 4.01213L125.375 3.03527ZM126.907 3.37075L126.693 4.34761L126.693 4.34761L126.907 3.37075ZM144.828 9.74413L145.279 8.85159L145.279 8.85159L144.828 9.74413ZM145.052 9.85727L144.601 10.7498L144.601 10.7498L145.052 9.85727ZM174.945 37.608L175.802 37.092L175.802 37.092L174.945 37.608ZM178.003 42.6843L178.923 42.2921L178.896 42.228L178.86 42.1683L178.003 42.6843ZM174.197 108.041L173.382 107.462L173.382 107.462L174.197 108.041ZM169.997 113.953L169.182 113.374L169.182 113.374L169.997 113.953ZM151.868 130.564L151.362 129.701L151.362 129.701L151.868 130.564ZM147.714 133L148.155 133.898L148.188 133.881L148.22 133.863L147.714 133ZM49.4431 139.948V138.948H48.4431V139.948H49.4431ZM49.4431 240.369L49.3266 241.362C49.6102 241.395 49.8944 241.306 50.1078 241.116C50.3211 240.926 50.4431 240.654 50.4431 240.369H49.4431ZM46.5176 240.026L46.4011 241.019L46.4011 241.019L46.5176 240.026ZM24.6106 231.786L25.1775 230.963L25.1775 230.963L24.6106 231.786ZM21.7552 229.822L21.1883 230.645L21.1883 230.645L21.7552 229.822ZM7.8014 213.197L6.89179 213.612L7.8014 213.197ZM6.36544 210.053L5.43085 210.409L5.44237 210.439L5.45583 210.468L6.36544 210.053ZM5.80812 122.926L6.73467 123.302L6.73468 123.302L5.80812 122.926ZM5.89415 122.714L4.9676 122.337L4.9676 122.337L5.89415 122.714ZM21.0472 104.971L20.5307 104.115L20.5307 104.115L21.0472 104.971ZM24.3685 102.968L24.885 103.824L24.885 103.824L24.3685 102.968ZM119.655 97.3645L119.295 96.4317L119.295 96.4317L119.655 97.3645ZM120.139 97.1777L120.499 98.1105L120.499 98.1105L120.139 97.1777ZM129.695 91.1708L130.38 91.9001L130.38 91.9001L129.695 91.1708ZM130.429 90.4827L129.744 89.7535L129.744 89.7535L130.429 90.4827ZM129.909 53.5328L130.622 52.8315L130.622 52.8315L129.909 53.5328ZM129.437 53.053L130.15 52.3517L130.15 52.3517L129.437 53.053ZM33.1819 39.2134L32.6913 40.0848L32.6913 40.0848L33.1819 39.2134ZM30.031 37.4395L30.5216 36.5681L30.5216 36.5681L30.031 37.4395ZM22.1588 32.1468L21.537 32.93L21.537 32.93L22.1588 32.1468ZM21.1359 31.3346L21.7577 30.5514L21.7577 30.5514L21.1359 31.3346ZM13.896 24.2071L13.1227 24.8411L13.1227 24.8411L13.896 24.2071ZM13.4247 23.6321L14.198 22.9982L14.198 22.9982L13.4247 23.6321ZM5.29881 7.4832L6.26877 7.23998L6.26877 7.23998L5.29881 7.4832ZM8.301 15.6719L9.19833 15.2306L9.19833 15.2306L8.301 15.6719ZM38.9891 41.9184L38.6377 42.8546L38.6377 42.8546L38.9891 41.9184ZM118.63 46.1873L118.962 45.244L118.962 45.244L118.63 46.1873ZM134.809 60.4051L133.914 60.8504L133.914 60.8504L134.809 60.4051ZM134.597 85.2113L135.464 85.709L135.464 85.709L134.597 85.2113ZM12.8501 111.691L12.1118 111.016L12.1118 111.016L12.8501 111.691ZM14.5992 223.547L13.8565 224.217L13.8565 224.217L14.5992 223.547ZM31.5238 235.751L31.0991 236.656L31.0991 236.656L31.5238 235.751ZM163.878 121.233L163.167 120.53L163.167 120.53L163.878 121.233ZM180.287 96.5228L181.225 96.8703L181.225 96.8703L180.287 96.5228ZM161.043 20.7891L161.711 20.0448L161.043 20.7891ZM27.5196 101.371L27.9045 102.294L27.9045 102.294L27.5196 101.371ZM3.67309 2H106.563V0H3.67309V2ZM125.161 4.01213L126.693 4.34761L127.121 2.39389L125.589 2.05841L125.161 4.01213ZM144.377 10.6367L144.601 10.7498L145.503 8.96473L145.279 8.85159L144.377 10.6367ZM174.089 38.124L177.146 43.2002L178.86 42.1683L175.802 37.092L174.089 38.124ZM182.388 69.0473V79.237H184.388V69.0473H182.388ZM173.382 107.462L169.182 113.374L170.812 114.532L175.012 108.62L173.382 107.462ZM151.362 129.701L147.208 132.138L148.22 133.863L152.374 131.427L151.362 129.701ZM117.829 138.948H49.4431V140.948H117.829V138.948ZM48.4431 139.948V240.369H50.4431V139.948H48.4431ZM49.5596 239.375L46.6341 239.032L46.4011 241.019L49.3266 241.362L49.5596 239.375ZM25.1775 230.963L22.3221 228.998L21.1883 230.645L24.0437 232.61L25.1775 230.963ZM8.71102 212.781L7.27506 209.637L5.45583 210.468L6.89179 213.612L8.71102 212.781ZM4 191.75V137.307H2V191.75H4ZM6.73468 123.302L6.82071 123.09L4.9676 122.337L4.88157 122.549L6.73468 123.302ZM21.5637 105.827L24.885 103.824L23.852 102.111L20.5307 104.115L21.5637 105.827ZM36.7352 100.526H108.061V98.5264H36.7352V100.526ZM120.015 98.2973L120.499 98.1105L119.778 96.2449L119.295 96.4317L120.015 98.2973ZM130.38 91.9001L131.113 91.2119L129.744 89.7535L129.011 90.4416L130.38 91.9001ZM138.618 73.8785V72.3602H136.618V73.8785H138.618ZM130.622 52.8315L130.15 52.3517L128.725 53.7543L129.196 54.234L130.622 52.8315ZM109.214 43.579H53.6491V45.579H109.214V43.579ZM33.6725 38.3421L30.5216 36.5681L29.5404 38.3109L32.6913 40.0848L33.6725 38.3421ZM22.7806 31.3636L21.7577 30.5514L20.514 32.1178L21.537 32.93L22.7806 31.3636ZM14.6694 23.5731L14.198 22.9982L12.6513 24.2661L13.1227 24.8411L14.6694 23.5731ZM6.26877 7.23998L4.64306 0.756772L2.70312 1.24323L4.32884 7.72643L6.26877 7.23998ZM9.19833 15.2306C7.9427 12.6778 6.96072 9.99938 6.26877 7.23998L4.32884 7.72643C5.0551 10.6227 6.08578 13.434 7.40367 16.1133L9.19833 15.2306ZM14.198 22.9982C12.2394 20.609 10.5619 18.0027 9.19833 15.2306L7.40367 16.1133C8.83484 19.0229 10.5956 21.7585 12.6513 24.2661L14.198 22.9982ZM21.7577 30.5514C19.1536 28.4839 16.7774 26.1445 14.6694 23.5731L13.1227 24.8411C15.3208 27.5224 17.7986 29.9618 20.5141 32.1178L21.7577 30.5514ZM30.5216 36.5681C27.8079 35.0403 25.2195 33.3001 22.7806 31.3636L21.537 32.93C24.0586 34.932 26.7347 36.7313 29.5404 38.3109L30.5216 36.5681ZM39.3405 40.9822C37.3863 40.2487 35.4914 39.3661 33.6725 38.3421L32.6913 40.0848C34.5995 41.1591 36.5875 42.0851 38.6377 42.8546L39.3405 40.9822ZM53.6491 43.579C48.7624 43.579 43.9156 42.6994 39.3405 40.9822L38.6377 42.8546C43.4375 44.6562 48.5224 45.579 53.6491 45.579V43.579ZM118.962 45.244C115.83 44.142 112.534 43.579 109.214 43.579V45.579C112.308 45.579 115.38 46.1036 118.298 47.1306L118.962 45.244ZM130.15 52.3517C127.011 49.1608 123.185 46.7297 118.962 45.244L118.298 47.1306C122.233 48.5151 125.799 50.7807 128.725 53.7543L130.15 52.3517ZM135.704 59.9598C134.397 57.3306 132.682 54.9248 130.622 52.8315L129.196 54.234C131.108 56.177 132.7 58.4101 133.914 60.8504L135.704 59.9598ZM138.618 72.3602C138.618 68.0572 137.621 63.8127 135.704 59.9598L133.914 60.8504C135.692 64.4266 136.618 68.3662 136.618 72.3602H138.618ZM135.464 85.709C137.531 82.1085 138.618 78.0297 138.618 73.8785H136.618C136.618 77.6804 135.622 81.416 133.73 84.7136L135.464 85.709ZM131.113 91.2119C132.828 89.603 134.294 87.7485 135.464 85.709L133.73 84.7136C132.658 86.5814 131.315 88.2799 129.744 89.7535L131.113 91.2119ZM13.5884 112.365C15.9189 109.814 18.6049 107.612 21.5637 105.827L20.5307 104.115C17.4073 105.999 14.5719 108.323 12.1118 111.016L13.5884 112.365ZM6.8207 123.09C8.42339 119.142 10.7149 115.511 13.5884 112.365L12.1118 111.016C9.07844 114.337 6.65944 118.17 4.9676 122.337L6.8207 123.09ZM4 137.307C4 132.506 4.92861 127.75 6.73467 123.302L4.88157 122.549C2.97849 127.237 2 132.248 2 137.307H4ZM7.30004 209.697C5.1183 203.965 4 197.883 4 191.75H2C2 198.126 3.16263 204.449 5.43085 210.409L7.30004 209.697ZM15.3418 222.878C12.6297 219.87 10.3935 216.465 8.71102 212.781L6.89179 213.612C8.65906 217.482 11.0078 221.058 13.8565 224.217L15.3418 222.878ZM22.3221 228.998C19.764 227.238 17.4213 225.183 15.3418 222.878L13.8565 224.217C16.0407 226.639 18.5015 228.797 21.1883 230.645L22.3221 228.998ZM31.9486 234.846C29.5891 233.739 27.3245 232.44 25.1775 230.963L24.0437 232.61C26.2809 234.15 28.6406 235.503 31.0991 236.656L31.9486 234.846ZM163.167 120.53C159.647 124.087 155.679 127.17 151.362 129.701L152.374 131.427C156.84 128.807 160.947 125.617 164.589 121.937L163.167 120.53ZM169.182 113.374C167.374 115.918 165.362 118.311 163.167 120.53L164.589 121.937C166.86 119.641 168.942 117.165 170.812 114.532L169.182 113.374ZM179.349 96.1752C177.864 100.183 175.857 103.978 173.382 107.462L175.012 108.62C177.589 104.993 179.678 101.043 181.225 96.8703L179.349 96.1752ZM182.388 79.237C182.388 85.0186 181.359 90.7541 179.349 96.1752L181.225 96.8703C183.317 91.2267 184.388 85.2559 184.388 79.237H182.388ZM46.6341 239.032C41.5456 238.436 36.5868 237.022 31.9486 234.846L31.0991 236.656C35.932 238.924 41.099 240.397 46.4011 241.019L46.6341 239.032ZM120.499 98.1105C124.161 96.6954 127.516 94.5867 130.38 91.9001L129.011 90.4416C126.335 92.9521 123.2 94.9226 119.778 96.2449L120.499 98.1105ZM160.375 21.5333C165.744 26.3523 170.366 31.9438 174.089 38.124L175.802 37.092C171.977 30.7418 167.228 24.9965 161.711 20.0448L160.375 21.5333ZM108.061 100.526C112.149 100.526 116.202 99.7707 120.015 98.2973L119.295 96.4317C115.711 97.8163 111.903 98.5264 108.061 98.5264V100.526ZM144.601 10.7498C150.31 13.6346 155.614 17.2604 160.375 21.5333L161.711 20.0448C156.819 15.6544 151.369 11.9289 145.503 8.96473L144.601 10.7498ZM27.9045 102.294C30.7024 101.127 33.7038 100.526 36.7352 100.526V98.5264C33.4395 98.5264 30.1765 99.1796 27.1347 100.448L27.9045 102.294ZM126.693 4.34761C132.829 5.69102 138.771 7.8041 144.377 10.6367L145.279 8.85159C139.522 5.94306 133.421 3.77332 127.121 2.39389L126.693 4.34761ZM177.083 43.0764C180.583 51.2874 182.388 60.1213 182.388 69.0473H184.388C184.388 59.8518 182.529 50.7511 178.923 42.2921L177.083 43.0764ZM147.273 132.103C138.111 136.606 128.038 138.948 117.829 138.948V140.948C128.344 140.948 138.719 138.536 148.155 133.898L147.273 132.103ZM24.885 103.824C25.8525 103.24 26.8617 102.729 27.9045 102.294L27.1347 100.448C26.001 100.921 24.9038 101.477 23.852 102.111L24.885 103.824ZM106.563 2C112.817 2 119.052 2.67461 125.161 4.01213L125.589 2.05841C119.339 0.690127 112.96 0 106.563 0V2Z" fill="#D9D9D9"/>
<defs>
<linearGradient id="paint0_linear_1692_197" x1="3" y1="1" x2="133.983" y2="236.525" gradientUnits="userSpaceOnUse">
<stop offset="0.479167" stop-color="#E9ECEF"/>
<stop offset="1" stop-color="#E9ECEF" stop-opacity="0"/>
</linearGradient>
</defs>
</svg>
