<svg width="32" height="32" viewBox="0 0 32 32" fill="none" xmlns="http://www.w3.org/2000/svg">
<path d="M16 2C8.28059 2 2.00009 8.2805 2.00009 16C2.00009 18.4104 2.62278 20.7806 3.80365 22.8721L2.02261 29.2269C1.96418 29.4357 2.02079 29.6597 2.17174 29.8149C2.288 29.9348 2.44626 29.9999 2.60878 29.9999C2.65748 29.9999 2.70678 29.9938 2.75487 29.9823L9.3872 28.3394C11.4123 29.4265 13.6931 29.9999 16 29.9999C23.7195 29.9999 30 23.7194 30 16C30 8.2805 23.7195 2 16 2ZM23.0426 20.9401C22.7432 21.7692 21.3066 22.5258 20.6164 22.6274C19.9967 22.7181 19.2127 22.7571 18.352 22.4868C17.8304 22.3225 17.1608 22.1045 16.3032 21.7387C12.6979 20.2012 10.3435 16.6166 10.1633 16.3798C9.98372 16.143 8.69572 14.4557 8.69572 12.7094C8.69572 10.963 9.62398 10.1041 9.95389 9.74867C10.2838 9.39319 10.6728 9.30432 10.9126 9.30432C11.1524 9.30432 11.3916 9.30737 11.6016 9.31711C11.8226 9.32806 12.119 9.23372 12.4106 9.92641C12.7101 10.6374 13.4289 12.3837 13.5178 12.5621C13.6079 12.7398 13.6675 12.9474 13.5482 13.1841C13.4289 13.4209 13.3693 13.5688 13.1891 13.7764C13.0089 13.984 12.8117 14.239 12.6498 14.3985C12.4696 14.5756 12.2828 14.7674 12.4921 15.1228C12.7015 15.4783 13.4228 16.6403 14.4917 17.5813C15.8643 18.7902 17.0227 19.1652 17.3818 19.3429C17.7409 19.5206 17.9509 19.4908 18.1603 19.254C18.3697 19.0166 19.0587 18.2174 19.2979 17.8626C19.5372 17.5077 19.777 17.5661 20.1069 17.6848C20.4368 17.8029 22.2039 18.6612 22.563 18.8389C22.9221 19.0166 23.1619 19.1055 23.252 19.2534C23.3421 19.4007 23.3421 20.1117 23.0426 20.9401Z" stroke="url(#paint0_linear_1690_246)" stroke-linejoin="round" stroke-width="1.5"/>
<defs>
<linearGradient id="paint0_linear_1690_246" x1="2.00011" y1="15.9997" x2="24.1682" y2="27.37" gradientUnits="userSpaceOnUse">
<stop stop-color="#5390E3"/>
<stop offset="1" stop-color="#1357B3"/>
</linearGradient>
</defs>
</svg>
